Coordinates
version=1
nRows=14
nColumns=36
inDegrees=yes

Units are S.I. units (second, meters, Newtons, ...)
If the header above contains a line with 'inDegrees', this indicates whether rotational values are in degrees (yes) or radians (no).

endheader
time	pelvis_tilt	pelvis_list	pelvis_rotation	pelvis_tx	pelvis_ty	pelvis_tz	hip_flexion_r	hip_adduction_r	hip_rotation_r	knee_angle_r	knee_angle_r_beta	ankle_angle_r	subtalar_angle_r	mtp_angle_r	hip_flexion_l	hip_adduction_l	hip_rotation_l	knee_angle_l	knee_angle_l_beta	ankle_angle_l	subtalar_angle_l	mtp_angle_l	lumbar_extension	lumbar_bending	lumbar_rotation	arm_flex_r	arm_add_r	arm_rot_r	elbow_flex_r	pro_sup_r	arm_flex_l	arm_add_l	arm_rot_l	elbow_flex_l	pro_sup_l
      0.34000000	      2.82674254	     -2.17126409	     -1.99933629	      0.22479586	      0.96535415	     -0.23567988	     -1.10139104	      6.68548290	      1.24647477	      6.51046754	      0.11362909	      5.22892282	    -11.78552651	     -6.46459318	     23.74240675	     -1.74394025	      2.44418599	     56.06633854	      0.97854221	     -3.51149289	    -15.45120838	     -6.46459318	     -6.23718768	      3.19466062	      2.82965983	     -2.81494177	     -7.02512593	    -18.63087333	     38.61533425	    112.41733667	     -4.51742237	     -5.38149792	     -7.99760439	     18.55042123	    107.19524373
      0.35000000	      2.95274539	     -2.08117913	     -2.36678314	      0.23591933	      0.96577081	     -0.23469155	     -2.22444759	      6.51244938	      0.85489955	      6.12607665	      0.10692021	      6.68177873	     -9.77455882	     -6.53259484	     24.18692839	     -1.74171204	      2.21340693	     53.09447686	      0.92667344	     -3.46941119	    -15.88538726	     -6.53259484	     -6.51488957	      3.05375755	      3.36010327	     -2.31476252	     -7.24590215	    -18.41542806	     39.35896091	    112.29752282	     -5.07690222	     -5.49676608	     -8.82587487	     18.74742052	    106.71605615
      0.36000000	      2.83261805	     -2.01456787	     -2.78930369	      0.24700206	      0.96552107	     -0.23357425	     -3.12284279	      6.42687710	      1.21173036	      5.63283373	      0.09831149	      7.04924675	     -9.47893279	     -6.54283605	     24.80054675	     -1.84340247	      1.91369904	     49.94919111	      0.87177784	     -3.34385805	    -15.93572893	     -6.54283605	     -6.47301882	      2.94504311	      3.88734817	     -1.77801017	     -7.43002256	    -18.27727515	     39.91467552	    112.32693677	     -5.66159556	     -5.70994020	     -9.01095800	     18.66246718	    106.64459876
      0.37000000	      2.88491216	     -1.99791829	     -3.22229446	      0.25816745	      0.96526868	     -0.23250449	     -4.22975769	      6.37176507	      1.60400580	      5.12187421	      0.08939357	      7.60919453	     -9.08100860	     -6.55513106	     25.04885483	     -2.03237596	      1.52881504	     46.52256914	      0.81197201	     -3.67727040	    -16.15561054	     -6.55513106	     -6.66346869	      2.88271472	      4.49892418	     -1.29827342	     -7.67126832	    -18.07515902	     40.54954335	    112.35869837	     -6.20198867	     -5.88602723	     -9.30947681	     18.74284156	    106.55343005
      0.38000000	      2.90663880	     -2.04103398	     -3.64303616	      0.26939721	      0.96468015	     -0.23150429	     -5.27745935	      6.36881512	      1.94988047	      4.68326373	      0.08173837	      8.22593757	     -8.67619618	     -6.56862704	     25.22045957	     -2.29412815	      1.11063736	     42.92199592	      0.74913015	     -4.34335542	    -16.47683600	     -6.56862704	     -6.82055282	      2.90297271	      5.08603863	     -0.83198455	     -7.90979289	    -17.85596747	     41.18925377	    112.38230529	     -6.77115923	     -6.00532853	     -9.71741410	     18.94264132	    106.45087667
      0.39000000	      2.97213165	     -2.11768761	     -4.01117689	      0.28070742	      0.96389603	     -0.23069744	     -6.33946252	      6.37153865	      2.05959551	      4.32802043	      0.07553821	      9.09874720	     -7.79504236	     -6.61764606	     25.21002045	     -2.51829432	      0.76505459	     39.11289045	      0.68264872	     -5.92255601	    -17.81035128	     -6.61764606	     -7.04220158	      2.93907760	      5.46700515	     -0.26802953	     -8.17183682	    -17.43814463	     41.80612495	    112.32150537	     -7.54314007	     -5.97486881	    -11.25909777	     19.75473964	    106.18597639
      0.40000000	      2.79549754	     -2.24954247	     -4.46219652	      0.29194609	      0.96253183	     -0.22980862	     -7.07222817	      6.45456418	      2.59523965	      4.11622148	      0.07184162	      9.58602162	     -7.68965763	     -6.62634047	     25.41050932	     -2.90405874	      0.33806950	     35.35953537	      0.61714031	     -6.31840189	    -17.20186582	     -6.62634047	     -6.96748729	      3.08500561	      5.99149794	      0.26602484	     -8.40355535	    -17.25025894	     42.28228326	    112.34668878	     -8.12057843	     -6.02885037	    -11.51665606	     19.85800002	    106.15983022
      0.41000000	      2.88262563	     -2.36806282	     -4.92926317	      0.30345891	      0.96134888	     -0.22887946	     -8.21239432	      6.48527378	      3.14954106	      3.70534263	      0.06467043	     10.22476665	     -7.57306020	     -6.63730366	     25.17721845	     -3.29363661	     -0.34175371	     31.47283311	      0.54930456	     -6.92136238	    -16.63634459	     -6.63730366	     -7.18200042	      3.17097379	      6.58071247	      0.74388377	     -8.66864955	    -16.94558016	     42.79343082	    112.37313005	     -8.68543626	     -6.10141391	    -11.91222952	     20.13727614	    106.12252713
      0.42000000	      2.92121863	     -2.53473139	     -5.38341521	      0.31497181	      0.95990574	     -0.22807976	     -9.27705328	      6.54674918	      3.74749889	      3.36413286	      0.05871519	     10.78535512	     -7.42280664	     -6.64795813	     24.92568756	     -3.68897628	     -0.90806458	     27.58492613	      0.48144778	     -7.40166348	    -15.92394758	     -6.64795813	     -7.36746637	      3.31467287	      7.08947159	      1.26062086	     -8.92223601	    -16.62394141	     43.28934651	    112.39404403	     -9.26308075	     -6.10956978	    -12.35770015	     20.42317392	    106.08126725
      0.43000000	      3.12009921	     -2.71232668	     -5.83427587	      0.32666633	      0.95844472	     -0.22736434	    -10.56455131	      6.56905458	      4.19124657	      2.95639306	      0.05159879	     11.49878903	     -7.01236845	     -6.74186788	     24.42973571	     -4.06492755	     -1.57044328	     23.75723256	      0.41464193	     -7.62930645	    -15.00552807	     -6.74186788	     -7.74720890	      3.39510449	      7.10832408	      2.18356150	     -9.23724019	    -15.36645478	     43.31533721	    112.19189021	    -10.35419832	     -5.69131242	    -15.59912130	     21.94233306	    106.05935555
      0.44000000	      3.20074374	     -2.91823941	     -6.28567608	      0.33838970	      0.95669687	     -0.22673201	    -11.67606159	      6.61381796	      4.74384046	      2.65188606	      0.04628414	     12.09709108	     -6.89323770	     -6.75759493	     24.01732256	     -4.43535970	     -2.03792468	     20.03838392	      0.34973578	     -7.60904475	    -13.68298060	     -6.75759493	     -7.96822409	      3.58666707	      7.61088211	      2.66291742	     -9.47063727	    -15.08807262	     43.76197210	    112.10870219	    -10.83726582	     -5.67957279	    -15.78554558	     22.03956941	    106.07820428
      0.45000000	      3.28986267	     -3.14557340	     -6.71656072	      0.35023043	      0.95480297	     -0.22622810	    -12.79610852	      6.65831742	      5.22677148	      2.38226063	      0.04157829	     12.67464608	     -6.68137833	     -6.77434434	     23.56006208	     -4.79033588	     -2.35934200	     16.48752649	      0.28776162	     -7.20618808	    -12.18113034	     -6.77434434	     -8.18891065	      3.80029320	      8.02046358	      3.15023302	     -9.70821983	    -14.72834343	     44.15847555	    112.06440955	    -11.35390621	     -5.63439888	    -16.13562317	     22.19033600	    106.07724409
      0.46000000	      3.30711338	     -3.40487636	     -7.12079073	      0.36213386	      0.95267596	     -0.22583033	    -13.80046406	      6.72511551	      5.56723373	      2.19756659	      0.03835477	     13.33272054	     -6.19711705	     -6.82023065	     23.20040052	     -5.18249744	     -2.58320105	     13.23811183	      0.23104864	     -6.17043931	    -10.07991934	     -6.82023065	     -8.32649174	      4.04083999	      8.22164104	      3.75773684	     -9.94837080	    -14.03057395	     44.34199005	    112.10414881	    -12.02700693	     -5.43443291	    -17.29626345	     22.68127709	    106.18930896
      0.47000000	      3.16721391	     -3.65126791	     -7.49180264	      0.37404735	      0.95026871	     -0.22562284	    -14.56780221	      6.79641668	      5.99136608	      2.14534185	      0.03744328	     13.87009922	     -6.11473348	     -6.82941948	     22.96257968	     -5.48813673	     -2.16224340	     10.12350250	      0.17668845	     -5.67226091	     -9.10989414	     -6.82941948	     -8.27425786	      4.32606990	      8.55859886	      4.16416918	    -10.11776086	    -13.83924067	     44.65000627	    112.03667791	    -12.46011450	     -5.37480824	    -17.51479439	     22.67761215	    106.13665764
